<?xml version="1.0" encoding="iso-8859-1"?>
<!-- Generator: Adobe Illustrator 19.0.0, SVG Export Plug-In . SVG Version: 6.00 Build 0)  -->
<svg version="1.1" id="Layer_1" xmlns="http://www.w3.org/2000/svg" xmlns:xlink="http://www.w3.org/1999/xlink" x="0px" y="0px"
	 viewBox="0 0 206.816 206.816" style="enable-background:new 0 0 206.816 206.816;" xml:space="preserve">
<g>
	<g>
		<g>
			<path d="M188.97,27.802H17.847C8.006,27.802,0,35.815,0,45.666v49.852c0,9.851,8.006,17.864,17.847,17.864H188.97
				c9.841,0,17.846-8.013,17.846-17.864V45.666C206.817,35.815,198.811,27.802,188.97,27.802z M199.685,95.518
				c0,5.916-4.806,10.732-10.715,10.732H17.847c-5.909,0-10.715-4.816-10.715-10.732V45.666c0-5.916,4.806-10.732,10.715-10.732
				H188.97c5.909,0,10.715,4.816,10.715,10.732V95.518z"/>
			<rect x="35.658" y="88.421" width="131.987" height="7.132"/>
			<rect x="21.395" y="77.724" width="164.027" height="7.132"/>
			<path d="M131.155,129.125c-1.706-0.982-3.886-0.4-4.872,1.306l-21.743,37.66l-8.451-15.91c-0.926-1.741-3.085-2.41-4.82-1.477
				c-1.741,0.923-2.403,3.082-1.477,4.82l11.47,21.597c0.606,1.146,1.79,1.87,3.085,1.894c0.021,0,0.042,0,0.063,0
				c1.271,0,2.451-0.679,3.089-1.783l24.961-43.235C133.446,132.289,132.861,130.109,131.155,129.125z"/>
		</g>
	</g>
</g>
<g>
</g>
<g>
</g>
<g>
</g>
<g>
</g>
<g>
</g>
<g>
</g>
<g>
</g>
<g>
</g>
<g>
</g>
<g>
</g>
<g>
</g>
<g>
</g>
<g>
</g>
<g>
</g>
<g>
</g>
</svg>
